# xmcd
#
# Track frame offsets: 
#        150
#        15860
#        34831
#        51617
#        75389
#        92171
#        107879
#        123570
#        138310
#        158769
#        176033
#        191901
#
# Disc length: 2779 seconds
#
# Revision: 0
# Processed by: cddbd v1.5.2PL0 Copyright (c) Steve Scherf et al.
# Submitted via: ExactAudioCopyFreeDBPlugin 1.0
#
DISCID=9e0ad90c
DTITLE=Rocket Club - North Country
DYEAR=2012
DGENRE=Country
TTITLE0=North Country
TTITLE1=She's The One
TTITLE2=Every Silver Lining
TTITLE3=Get A Boat
TTITLE4=Take You There
TTITLE5=One Of These Days
TTITLE6=Friends Stand In Line
TTITLE7=Running Out Of Time
TTITLE8=Angry Women And Lessons Learned
TTITLE9=Living Out Loud
TTITLE10=I Can't Dance
TTITLE11=Four Letter World
EXTD=
EXTT0=
EXTT1=
EXTT2=
EXTT3=
EXTT4=
EXTT5=
EXTT6=
EXTT7=
EXTT8=
EXTT9=
EXTT10=
EXTT11=
PLAYORDER=
